<mxfile host="app.diagrams.net" modified="2022-01-18T23:45:14.282Z" agent="5.0 (Windows)" etag="bigEQ5fzV-X7s_Q2y9z-" version="16.3.0" type="github">
  <diagram name="Page-1" id="9f46799a-70d6-7492-0946-bef42562c5a5">
    <mxGraphModel dx="1038" dy="1345" grid="1" gridSize="10" guides="1" tooltips="1" connect="1" arrows="1" fold="1" page="1" pageScale="1" pageWidth="1100" pageHeight="850" background="none" math="0" shadow="0">
      <root>
        <mxCell id="0" />
        <mxCell id="1" parent="0" />
        <mxCell id="78961159f06e98e8-17" value="Student" style="swimlane;html=1;fontStyle=1;align=center;verticalAlign=top;childLayout=stackLayout;horizontal=1;startSize=26;horizontalStack=0;resizeParent=1;resizeLast=0;collapsible=1;marginBottom=0;swimlaneFillColor=#ffffff;rounded=0;shadow=0;comic=0;labelBackgroundColor=none;strokeWidth=1;fillColor=none;fontFamily=Verdana;fontSize=12" parent="1" vertex="1">
          <mxGeometry x="50" y="209" width="160" height="182" as="geometry" />
        </mxCell>
        <mxCell id="78961159f06e98e8-21" value="Name" style="text;html=1;strokeColor=none;fillColor=none;align=left;verticalAlign=top;spacingLeft=4;spacingRight=4;whiteSpace=wrap;overflow=hidden;rotatable=0;points=[[0,0.5],[1,0.5]];portConstraint=eastwest;" parent="78961159f06e98e8-17" vertex="1">
          <mxGeometry y="26" width="160" height="26" as="geometry" />
        </mxCell>
        <mxCell id="78961159f06e98e8-23" value="Lastname" style="text;html=1;strokeColor=none;fillColor=none;align=left;verticalAlign=top;spacingLeft=4;spacingRight=4;whiteSpace=wrap;overflow=hidden;rotatable=0;points=[[0,0.5],[1,0.5]];portConstraint=eastwest;" parent="78961159f06e98e8-17" vertex="1">
          <mxGeometry y="52" width="160" height="26" as="geometry" />
        </mxCell>
        <mxCell id="78961159f06e98e8-25" value="Age" style="text;html=1;strokeColor=none;fillColor=none;align=left;verticalAlign=top;spacingLeft=4;spacingRight=4;whiteSpace=wrap;overflow=hidden;rotatable=0;points=[[0,0.5],[1,0.5]];portConstraint=eastwest;" parent="78961159f06e98e8-17" vertex="1">
          <mxGeometry y="78" width="160" height="26" as="geometry" />
        </mxCell>
        <mxCell id="78961159f06e98e8-26" value="Address" style="text;html=1;strokeColor=none;fillColor=none;align=left;verticalAlign=top;spacingLeft=4;spacingRight=4;whiteSpace=wrap;overflow=hidden;rotatable=0;points=[[0,0.5],[1,0.5]];portConstraint=eastwest;" parent="78961159f06e98e8-17" vertex="1">
          <mxGeometry y="104" width="160" height="26" as="geometry" />
        </mxCell>
        <mxCell id="78961159f06e98e8-24" value="E-mail" style="text;html=1;strokeColor=none;fillColor=none;align=left;verticalAlign=top;spacingLeft=4;spacingRight=4;whiteSpace=wrap;overflow=hidden;rotatable=0;points=[[0,0.5],[1,0.5]];portConstraint=eastwest;" parent="78961159f06e98e8-17" vertex="1">
          <mxGeometry y="130" width="160" height="26" as="geometry" />
        </mxCell>
        <mxCell id="4oii11vSi95ZvYlIdcfr-5" value="ID number" style="text;html=1;strokeColor=none;fillColor=none;align=left;verticalAlign=top;spacingLeft=4;spacingRight=4;whiteSpace=wrap;overflow=hidden;rotatable=0;points=[[0,0.5],[1,0.5]];portConstraint=eastwest;" vertex="1" parent="78961159f06e98e8-17">
          <mxGeometry y="156" width="160" height="26" as="geometry" />
        </mxCell>
        <mxCell id="78961159f06e98e8-30" value="Classes" style="swimlane;html=1;fontStyle=1;align=center;verticalAlign=top;childLayout=stackLayout;horizontal=1;startSize=26;horizontalStack=0;resizeParent=1;resizeLast=0;collapsible=1;marginBottom=0;swimlaneFillColor=#ffffff;rounded=0;shadow=0;comic=0;labelBackgroundColor=none;strokeWidth=1;fillColor=none;fontFamily=Verdana;fontSize=12" parent="1" vertex="1">
          <mxGeometry x="330" y="209" width="160" height="182" as="geometry" />
        </mxCell>
        <mxCell id="78961159f06e98e8-31" value="Schedule" style="text;html=1;strokeColor=none;fillColor=none;align=left;verticalAlign=top;spacingLeft=4;spacingRight=4;whiteSpace=wrap;overflow=hidden;rotatable=0;points=[[0,0.5],[1,0.5]];portConstraint=eastwest;" parent="78961159f06e98e8-30" vertex="1">
          <mxGeometry y="26" width="160" height="26" as="geometry" />
        </mxCell>
        <mxCell id="78961159f06e98e8-32" value="Grades" style="text;html=1;strokeColor=none;fillColor=none;align=left;verticalAlign=top;spacingLeft=4;spacingRight=4;whiteSpace=wrap;overflow=hidden;rotatable=0;points=[[0,0.5],[1,0.5]];portConstraint=eastwest;" parent="78961159f06e98e8-30" vertex="1">
          <mxGeometry y="52" width="160" height="26" as="geometry" />
        </mxCell>
        <mxCell id="78961159f06e98e8-33" value="Attendance" style="text;html=1;strokeColor=none;fillColor=none;align=left;verticalAlign=top;spacingLeft=4;spacingRight=4;whiteSpace=wrap;overflow=hidden;rotatable=0;points=[[0,0.5],[1,0.5]];portConstraint=eastwest;" parent="78961159f06e98e8-30" vertex="1">
          <mxGeometry y="78" width="160" height="26" as="geometry" />
        </mxCell>
        <mxCell id="78961159f06e98e8-34" value="Professor" style="text;html=1;strokeColor=none;fillColor=none;align=left;verticalAlign=top;spacingLeft=4;spacingRight=4;whiteSpace=wrap;overflow=hidden;rotatable=0;points=[[0,0.5],[1,0.5]];portConstraint=eastwest;" parent="78961159f06e98e8-30" vertex="1">
          <mxGeometry y="104" width="160" height="26" as="geometry" />
        </mxCell>
        <mxCell id="78961159f06e98e8-37" value="Classroom" style="text;html=1;strokeColor=none;fillColor=none;align=left;verticalAlign=top;spacingLeft=4;spacingRight=4;whiteSpace=wrap;overflow=hidden;rotatable=0;points=[[0,0.5],[1,0.5]];portConstraint=eastwest;" parent="78961159f06e98e8-30" vertex="1">
          <mxGeometry y="130" width="160" height="26" as="geometry" />
        </mxCell>
        <mxCell id="4oii11vSi95ZvYlIdcfr-6" value="Use" style="endArrow=ERoneToMany;endSize=15;html=1;rounded=0;labelBackgroundColor=none;fontColor=none;endFill=0;noLabel=1;exitX=1;exitY=0.5;exitDx=0;exitDy=0;entryX=0;entryY=0.5;entryDx=0;entryDy=0;" edge="1" parent="1" source="78961159f06e98e8-25" target="78961159f06e98e8-30">
          <mxGeometry width="160" relative="1" as="geometry">
            <mxPoint x="270" y="220" as="sourcePoint" />
            <mxPoint x="380" y="230" as="targetPoint" />
            <Array as="points" />
          </mxGeometry>
        </mxCell>
        <mxCell id="4oii11vSi95ZvYlIdcfr-8" value="Professor" style="swimlane;html=1;fontStyle=1;align=center;verticalAlign=top;childLayout=stackLayout;horizontal=1;startSize=26;horizontalStack=0;resizeParent=1;resizeLast=0;collapsible=1;marginBottom=0;swimlaneFillColor=#ffffff;rounded=0;shadow=0;comic=0;labelBackgroundColor=none;strokeWidth=1;fillColor=none;fontFamily=Verdana;fontSize=12" vertex="1" parent="1">
          <mxGeometry x="590" y="160" width="160" height="280" as="geometry" />
        </mxCell>
        <mxCell id="4oii11vSi95ZvYlIdcfr-9" value="Name" style="text;html=1;strokeColor=none;fillColor=none;align=left;verticalAlign=top;spacingLeft=4;spacingRight=4;whiteSpace=wrap;overflow=hidden;rotatable=0;points=[[0,0.5],[1,0.5]];portConstraint=eastwest;" vertex="1" parent="4oii11vSi95ZvYlIdcfr-8">
          <mxGeometry y="26" width="160" height="26" as="geometry" />
        </mxCell>
        <mxCell id="4oii11vSi95ZvYlIdcfr-10" value="Lastname" style="text;html=1;strokeColor=none;fillColor=none;align=left;verticalAlign=top;spacingLeft=4;spacingRight=4;whiteSpace=wrap;overflow=hidden;rotatable=0;points=[[0,0.5],[1,0.5]];portConstraint=eastwest;" vertex="1" parent="4oii11vSi95ZvYlIdcfr-8">
          <mxGeometry y="52" width="160" height="26" as="geometry" />
        </mxCell>
        <mxCell id="4oii11vSi95ZvYlIdcfr-11" value="Age" style="text;html=1;strokeColor=none;fillColor=none;align=left;verticalAlign=top;spacingLeft=4;spacingRight=4;whiteSpace=wrap;overflow=hidden;rotatable=0;points=[[0,0.5],[1,0.5]];portConstraint=eastwest;" vertex="1" parent="4oii11vSi95ZvYlIdcfr-8">
          <mxGeometry y="78" width="160" height="26" as="geometry" />
        </mxCell>
        <mxCell id="4oii11vSi95ZvYlIdcfr-12" value="Address" style="text;html=1;strokeColor=none;fillColor=none;align=left;verticalAlign=top;spacingLeft=4;spacingRight=4;whiteSpace=wrap;overflow=hidden;rotatable=0;points=[[0,0.5],[1,0.5]];portConstraint=eastwest;" vertex="1" parent="4oii11vSi95ZvYlIdcfr-8">
          <mxGeometry y="104" width="160" height="26" as="geometry" />
        </mxCell>
        <mxCell id="4oii11vSi95ZvYlIdcfr-13" value="ID" style="text;html=1;strokeColor=none;fillColor=none;align=left;verticalAlign=top;spacingLeft=4;spacingRight=4;whiteSpace=wrap;overflow=hidden;rotatable=0;points=[[0,0.5],[1,0.5]];portConstraint=eastwest;" vertex="1" parent="4oii11vSi95ZvYlIdcfr-8">
          <mxGeometry y="130" width="160" height="26" as="geometry" />
        </mxCell>
        <mxCell id="4oii11vSi95ZvYlIdcfr-14" value="Personal e-mail" style="text;html=1;strokeColor=none;fillColor=none;align=left;verticalAlign=top;spacingLeft=4;spacingRight=4;whiteSpace=wrap;overflow=hidden;rotatable=0;points=[[0,0.5],[1,0.5]];portConstraint=eastwest;" vertex="1" parent="4oii11vSi95ZvYlIdcfr-8">
          <mxGeometry y="156" width="160" height="26" as="geometry" />
        </mxCell>
        <mxCell id="4oii11vSi95ZvYlIdcfr-15" value="&lt;div&gt;Faculty e-mail&lt;/div&gt;" style="text;html=1;strokeColor=none;fillColor=none;align=left;verticalAlign=top;spacingLeft=4;spacingRight=4;whiteSpace=wrap;overflow=hidden;rotatable=0;points=[[0,0.5],[1,0.5]];portConstraint=eastwest;" vertex="1" parent="4oii11vSi95ZvYlIdcfr-8">
          <mxGeometry y="182" width="160" height="26" as="geometry" />
        </mxCell>
        <mxCell id="4oii11vSi95ZvYlIdcfr-17" value="Hourly rate" style="text;html=1;strokeColor=none;fillColor=none;align=left;verticalAlign=top;spacingLeft=4;spacingRight=4;whiteSpace=wrap;overflow=hidden;rotatable=0;points=[[0,0.5],[1,0.5]];portConstraint=eastwest;" vertex="1" parent="4oii11vSi95ZvYlIdcfr-8">
          <mxGeometry y="208" width="160" height="26" as="geometry" />
        </mxCell>
        <mxCell id="4oii11vSi95ZvYlIdcfr-18" value="Bank Account" style="text;html=1;strokeColor=none;fillColor=none;align=left;verticalAlign=top;spacingLeft=4;spacingRight=4;whiteSpace=wrap;overflow=hidden;rotatable=0;points=[[0,0.5],[1,0.5]];portConstraint=eastwest;" vertex="1" parent="4oii11vSi95ZvYlIdcfr-8">
          <mxGeometry y="234" width="160" height="26" as="geometry" />
        </mxCell>
        <mxCell id="4oii11vSi95ZvYlIdcfr-19" style="rounded=0;orthogonalLoop=1;jettySize=auto;html=1;exitX=1;exitY=0.5;exitDx=0;exitDy=0;entryX=0;entryY=0.5;entryDx=0;entryDy=0;labelBackgroundColor=none;fontColor=none;endArrow=ERoneToMany;endFill=0;endSize=15;" edge="1" parent="1" source="78961159f06e98e8-33" target="4oii11vSi95ZvYlIdcfr-8">
          <mxGeometry relative="1" as="geometry" />
        </mxCell>
        <mxCell id="4oii11vSi95ZvYlIdcfr-21" value="Faculty" style="swimlane;html=1;fontStyle=1;align=center;verticalAlign=top;childLayout=stackLayout;horizontal=1;startSize=26;horizontalStack=0;resizeParent=1;resizeLast=0;collapsible=1;marginBottom=0;swimlaneFillColor=#ffffff;rounded=0;shadow=0;comic=0;labelBackgroundColor=none;strokeWidth=1;fillColor=none;fontFamily=Verdana;fontSize=12" vertex="1" parent="1">
          <mxGeometry x="60" y="-30" width="160" height="182" as="geometry" />
        </mxCell>
        <mxCell id="4oii11vSi95ZvYlIdcfr-22" value="Name" style="text;html=1;strokeColor=none;fillColor=none;align=left;verticalAlign=top;spacingLeft=4;spacingRight=4;whiteSpace=wrap;overflow=hidden;rotatable=0;points=[[0,0.5],[1,0.5]];portConstraint=eastwest;" vertex="1" parent="4oii11vSi95ZvYlIdcfr-21">
          <mxGeometry y="26" width="160" height="26" as="geometry" />
        </mxCell>
        <mxCell id="4oii11vSi95ZvYlIdcfr-23" value="Programs" style="text;html=1;strokeColor=none;fillColor=none;align=left;verticalAlign=top;spacingLeft=4;spacingRight=4;whiteSpace=wrap;overflow=hidden;rotatable=0;points=[[0,0.5],[1,0.5]];portConstraint=eastwest;" vertex="1" parent="4oii11vSi95ZvYlIdcfr-21">
          <mxGeometry y="52" width="160" height="26" as="geometry" />
        </mxCell>
        <mxCell id="4oii11vSi95ZvYlIdcfr-24" value="Director" style="text;html=1;strokeColor=none;fillColor=none;align=left;verticalAlign=top;spacingLeft=4;spacingRight=4;whiteSpace=wrap;overflow=hidden;rotatable=0;points=[[0,0.5],[1,0.5]];portConstraint=eastwest;" vertex="1" parent="4oii11vSi95ZvYlIdcfr-21">
          <mxGeometry y="78" width="160" height="26" as="geometry" />
        </mxCell>
        <mxCell id="4oii11vSi95ZvYlIdcfr-25" value="# of Employees" style="text;html=1;strokeColor=none;fillColor=none;align=left;verticalAlign=top;spacingLeft=4;spacingRight=4;whiteSpace=wrap;overflow=hidden;rotatable=0;points=[[0,0.5],[1,0.5]];portConstraint=eastwest;" vertex="1" parent="4oii11vSi95ZvYlIdcfr-21">
          <mxGeometry y="104" width="160" height="26" as="geometry" />
        </mxCell>
        <mxCell id="4oii11vSi95ZvYlIdcfr-26" value="# of Teachers" style="text;html=1;strokeColor=none;fillColor=none;align=left;verticalAlign=top;spacingLeft=4;spacingRight=4;whiteSpace=wrap;overflow=hidden;rotatable=0;points=[[0,0.5],[1,0.5]];portConstraint=eastwest;" vertex="1" parent="4oii11vSi95ZvYlIdcfr-21">
          <mxGeometry y="130" width="160" height="26" as="geometry" />
        </mxCell>
        <mxCell id="4oii11vSi95ZvYlIdcfr-38" value="# of Students" style="text;html=1;strokeColor=none;fillColor=none;align=left;verticalAlign=top;spacingLeft=4;spacingRight=4;whiteSpace=wrap;overflow=hidden;rotatable=0;points=[[0,0.5],[1,0.5]];portConstraint=eastwest;" vertex="1" parent="4oii11vSi95ZvYlIdcfr-21">
          <mxGeometry y="156" width="160" height="26" as="geometry" />
        </mxCell>
        <mxCell id="4oii11vSi95ZvYlIdcfr-36" style="edgeStyle=none;rounded=0;orthogonalLoop=1;jettySize=auto;html=1;exitX=0.5;exitY=1;exitDx=0;exitDy=0;labelBackgroundColor=none;fontColor=none;endArrow=ERoneToMany;endFill=0;endSize=15;" edge="1" parent="1" source="4oii11vSi95ZvYlIdcfr-28" target="78961159f06e98e8-30">
          <mxGeometry relative="1" as="geometry" />
        </mxCell>
        <mxCell id="4oii11vSi95ZvYlIdcfr-28" value="Program" style="swimlane;html=1;fontStyle=1;align=center;verticalAlign=top;childLayout=stackLayout;horizontal=1;startSize=26;horizontalStack=0;resizeParent=1;resizeLast=0;collapsible=1;marginBottom=0;swimlaneFillColor=#ffffff;rounded=0;shadow=0;comic=0;labelBackgroundColor=none;strokeWidth=1;fillColor=none;fontFamily=Verdana;fontSize=12" vertex="1" parent="1">
          <mxGeometry x="330" y="6" width="160" height="110" as="geometry" />
        </mxCell>
        <mxCell id="4oii11vSi95ZvYlIdcfr-29" value="Name" style="text;html=1;strokeColor=none;fillColor=none;align=left;verticalAlign=top;spacingLeft=4;spacingRight=4;whiteSpace=wrap;overflow=hidden;rotatable=0;points=[[0,0.5],[1,0.5]];portConstraint=eastwest;" vertex="1" parent="4oii11vSi95ZvYlIdcfr-28">
          <mxGeometry y="26" width="160" height="26" as="geometry" />
        </mxCell>
        <mxCell id="4oii11vSi95ZvYlIdcfr-30" value="# of Hours" style="text;html=1;strokeColor=none;fillColor=none;align=left;verticalAlign=top;spacingLeft=4;spacingRight=4;whiteSpace=wrap;overflow=hidden;rotatable=0;points=[[0,0.5],[1,0.5]];portConstraint=eastwest;" vertex="1" parent="4oii11vSi95ZvYlIdcfr-28">
          <mxGeometry y="52" width="160" height="26" as="geometry" />
        </mxCell>
        <mxCell id="4oii11vSi95ZvYlIdcfr-33" value="# of Teachers" style="text;html=1;strokeColor=none;fillColor=none;align=left;verticalAlign=top;spacingLeft=4;spacingRight=4;whiteSpace=wrap;overflow=hidden;rotatable=0;points=[[0,0.5],[1,0.5]];portConstraint=eastwest;" vertex="1" parent="4oii11vSi95ZvYlIdcfr-28">
          <mxGeometry y="78" width="160" height="26" as="geometry" />
        </mxCell>
        <mxCell id="4oii11vSi95ZvYlIdcfr-34" style="edgeStyle=none;rounded=0;orthogonalLoop=1;jettySize=auto;html=1;exitX=0.25;exitY=0;exitDx=0;exitDy=0;labelBackgroundColor=none;fontColor=none;endArrow=ERoneToMany;endFill=0;" edge="1" parent="1" source="4oii11vSi95ZvYlIdcfr-8" target="4oii11vSi95ZvYlIdcfr-8">
          <mxGeometry relative="1" as="geometry" />
        </mxCell>
        <mxCell id="4oii11vSi95ZvYlIdcfr-35" style="edgeStyle=none;rounded=0;orthogonalLoop=1;jettySize=auto;html=1;exitX=1;exitY=0.5;exitDx=0;exitDy=0;entryX=0;entryY=0.5;entryDx=0;entryDy=0;labelBackgroundColor=none;fontColor=none;endArrow=ERoneToMany;endFill=0;strokeWidth=1;endSize=15;" edge="1" parent="1" source="4oii11vSi95ZvYlIdcfr-24" target="4oii11vSi95ZvYlIdcfr-28">
          <mxGeometry relative="1" as="geometry" />
        </mxCell>
      </root>
    </mxGraphModel>
  </diagram>
</mxfile>
